<svg width="360" height="143" viewBox="0 0 360 143" fill="none" xmlns="http://www.w3.org/2000/svg">
<path opacity="0.4" d="M1.35971 -100.874C26.2802 -84.9353 63.4299 -67.021 107.548 -69.2796C156.209 -71.7715 176.259 -98.7183 218.079 -104.429C248.093 -108.527 143.623 -22.6451 298.786 -1.48515M1.35971 -100.874C25.5002 -83.2402 65.2274 -61.8058 111.263 -64.5537C160.192 -67.4771 181.932 -93.6084 223.358 -100.785C254.595 -106.196 146.029 -20.122 298.786 -1.48515M1.35971 -100.874C24.7222 -81.5452 67.0226 -56.5802 114.978 -59.8301C164.175 -63.1645 187.626 -88.6226 228.635 -97.141C261.151 -103.896 148.433 -17.5973 298.784 -1.48325M1.35971 -100.874C23.9421 -79.8481 68.8159 -51.3466 118.694 -55.1065C168.159 -58.8327 193.334 -83.7461 233.915 -93.4991C267.755 -101.631 150.842 -15.0765 298.786 -1.48515M1.35971 -100.874C23.1641 -78.1531 70.6073 -46.1069 122.409 -50.3806C172.14 -54.4849 199.046 -78.9686 239.194 -89.8551C274.391 -99.3997 153.247 -12.5533 298.786 -1.48515M1.35971 -100.874C22.3841 -76.4581 72.3983 -40.8565 126.123 -45.6566C176.123 -50.1225 204.76 -74.2841 244.473 -86.2132C281.055 -97.2029 155.654 -10.0325 298.786 -1.48515M1.35971 -100.874C21.6061 -74.7631 74.1877 -35.6003 129.84 -40.931C180.106 -45.7456 210.472 -69.676 249.752 -82.5692C287.739 -95.0392 158.06 -7.50973 298.786 -1.48515M1.35971 -100.874C20.826 -73.0681 75.9769 -30.3358 133.555 -36.207C184.089 -41.3603 216.176 -65.1402 255.03 -78.9273C294.438 -92.9107 160.466 -4.98889 298.784 -1.48516M1.35971 -100.874C20.048 -71.3731 77.766 -25.0647 137.271 -31.4815C188.072 -36.9609 221.876 -60.6662 260.311 -75.2834C301.147 -90.8131 162.877 -2.46574 298.786 -1.48515M1.35971 -100.874C19.268 -69.678 79.555 -19.7856 140.986 -26.7575C192.055 -32.555 227.564 -56.248 265.59 -71.6415C307.858 -88.7506 165.283 0.0551069 298.786 -1.48745M1.35971 -100.874C18.49 -67.983 81.3445 -14.4981 144.7 -22.0319C196.039 -28.1368 233.238 -51.8773 270.867 -67.9954C314.568 -86.717 167.687 2.57978 298.784 -1.48325M1.35971 -100.874C17.7099 -66.2882 83.1336 -9.20483 148.417 -17.3079C200.024 -23.7144 238.907 -47.5501 276.148 -64.3534C321.28 -84.7185 170.095 5.10063 298.786 -1.48515M1.35971 -100.874C16.9319 -64.5931 84.9227 -3.90278 152.131 -12.5824C204.009 -19.2817 244.564 -43.26 281.427 -60.7094C327.984 -82.7509 172.501 7.62377 298.786 -1.48324M1.35971 -100.874C16.1519 -62.898 86.7118 1.40308 155.846 -7.85838C207.994 -14.8452 250.208 -39.0027 286.705 -57.0677C334.681 -80.8144 174.908 10.1465 298.786 -1.48515M1.35971 -100.874C15.3739 -61.201 88.5032 6.71735 159.562 -3.13284C211.981 -10.3999 255.841 -34.7746 291.984 -53.4236C341.369 -78.9067 177.314 12.6697 298.786 -1.48324M1.35971 -100.874C14.5938 -59.5059 90.2942 12.0377 163.277 1.59116C215.968 -5.95073 261.463 -30.5731 297.263 -49.7819C348.045 -77.0279 179.72 15.1905 298.786 -1.48515M1.35971 -100.874C13.8158 -57.8108 92.0875 17.3665 166.992 6.31477C219.953 -1.49779 267.076 -26.3943 302.542 -46.1398C354.706 -75.1801 182.127 17.711 298.786 -1.48745M1.35971 -100.874C13.0358 -56.1157 93.8808 22.6992 170.708 11.0407C223.944 2.96169 272.677 -22.2342 307.822 -42.4958C361.355 -73.3592 184.537 20.2341 298.788 -1.48515M1.35971 -100.874C12.2578 -54.421 95.6741 28.0402 174.423 15.7643C227.931 7.42344 278.267 -18.0928 313.099 -38.854C367.984 -71.5651 186.941 22.755 298.784 -1.48745C244.698 83.2882 520.765 -34.981 439.794 48.5804C410 79.3303 323.843 115.301 263.589 129.157C139.087 157.786 -6.43878 -13.7365 1.35971 -100.874ZM1.35971 -100.874C11.4777 -52.7259 97.4696 33.3854 178.137 20.4903C231.92 11.8932 283.847 -13.9655 318.378 -35.2081C374.598 -69.7957 189.347 25.28 298.784 -1.48325M1.35971 -100.874C10.6998 -51.0308 99.2648 38.7368 181.854 25.2139C235.911 16.363 289.421 -9.85281 323.659 -31.566C381.193 -68.0553 191.755 27.8009 298.786 -1.48515M1.35971 -100.874C9.91969 -49.3358 101.062 44.0942 185.568 29.9398C239.902 20.8389 294.98 -5.7485 328.935 -27.9219C387.768 -66.3398 194.159 30.3236 298.784 -1.48516M1.35971 -100.874C9.1417 -47.6407 102.86 49.4582 189.283 34.6634C243.891 25.3148 300.532 -1.65872 334.214 -24.2802C394.325 -64.6489 196.566 32.8445 298.784 -1.48516M1.35971 -100.874C8.36163 -45.946 104.659 54.8279 193 39.3893C247.886 29.7972 306.076 2.42495 339.495 -20.6362C400.859 -62.9825 198.974 35.3695 298.786 -1.48515M1.35971 -100.874C7.58363 -44.2509 106.461 60.2022 196.714 44.113C251.877 34.2792 311.611 6.49829 344.774 -16.9944C407.375 -61.3394 201.38 37.8904 298.786 -1.48515M1.35971 -100.874C6.80357 -42.5539 108.262 65.5826 200.429 48.8389C255.87 38.7677 317.135 10.5678 350.051 -13.3504C413.863 -59.7185 203.784 40.4131 298.784 -1.48516M1.35971 -100.874C6.02561 -40.8588 110.064 70.9668 204.145 53.5625C259.865 43.254 322.656 14.6289 355.332 -9.70831C420.336 -58.1205 206.193 42.934 298.786 -1.48515M1.35971 -100.874C5.24555 -39.1637 111.87 76.3575 207.86 58.2884C263.859 47.7466 328.164 18.6858 360.611 -6.06237C426.786 -56.5389 208.601 45.459 298.786 -1.48324M1.35971 -100.874C4.46755 -37.4686 113.673 81.754 211.576 63.012C267.856 52.239 333.668 22.7385 365.891 -2.42063C433.21 -54.9845 211.009 47.9799 298.786 -1.48515M1.35971 -100.874C3.68749 -35.7735 115.481 87.1551 215.291 67.7357C271.849 56.7317 339.161 26.787 371.168 1.22149C439.614 -53.4485 213.413 50.5007 298.784 -1.48516M1.35971 -100.874C2.9095 -34.0788 117.289 92.5603 219.006 72.4616C275.847 61.2302 344.648 30.8355 376.447 4.86552C445.992 -51.9311 215.819 53.0235 298.784 -1.48516M1.35971 -100.874C2.12944 -32.3837 119.098 97.9713 222.722 77.1852C279.844 65.7271 350.129 34.8783 381.728 8.50726C452.35 -50.4322 218.228 55.5443 298.786 -1.48515M1.35971 -100.874C1.35145 -30.6886 120.908 103.387 226.437 81.9111C283.841 70.2298 355.602 38.9226 387.008 12.1513C458.686 -48.9496 220.634 58.0675 298.786 -1.48515M1.35971 -100.874C0.571399 -28.9935 122.721 108.806 230.152 86.6348C287.839 74.7305 361.07 42.963 392.285 15.793C464.991 -47.4881 223.038 60.5883 298.784 -1.48516M1.35971 -100.874C-0.206593 -27.2984 124.535 114.232 233.868 91.3584C291.838 79.2313 366.529 47.0012 397.566 19.4351C471.281 -46.0427 225.447 63.1111 298.786 -1.48745M1.35971 -100.874C-0.986651 -25.6037 126.349 119.66 237.583 96.0843C295.835 83.7381 371.984 51.0417 402.843 23.0811C477.544 -44.6079 227.852 65.6361 298.786 -1.48515M1.35971 -100.874C-1.76464 -23.9063 128.164 125.096 241.296 100.81C299.833 88.2454 377.43 55.084 408.12 26.7251C483.787 -43.1915 230.261 68.1589 298.786 -1.48324M1.35971 -100.874C-2.5447 -22.2135 129.982 130.532 245.014 105.534C303.835 92.7503 382.873 59.1222 413.401 30.3672C490.004 -41.7896 232.667 70.6797 298.786 -1.48515M1.35971 -100.874C-3.32269 -20.5165 131.8 135.976 248.728 110.26C307.837 97.2591 388.307 63.1627 418.678 34.0108C496.203 -40.4023 235.073 73.2029 298.784 -1.48325M1.35971 -100.874C-8.77483 -8.65125 144.567 174.185 274.737 143.332C335.856 128.845 426.217 91.4723 455.633 59.5125C538.966 -31.0273 251.921 90.8591 298.786 -1.48324M1.35971 -100.874C-11.1129 -3.56406 150.057 190.619 285.882 157.506C347.869 142.393 442.392 103.629 471.472 70.4404C556.983 -27.1604 259.141 98.4236 298.788 -1.48515M1.35971 -100.874C-14.229 3.21592 157.454 212.815 300.742 176.405C363.921 160.574 463.906 119.866 492.588 85.0142C580.743 -22.1061 268.766 108.513 298.786 -1.48515M1.35971 -100.874C-15.007 4.91064 159.263 218.196 304.457 181.13C367.914 165.041 469.271 123.933 497.865 88.6582C586.631 -20.8572 271.17 111.036 298.784 -1.48325M1.35971 -100.874C-15.7871 6.60573 161.071 223.578 308.174 185.854C371.911 169.509 474.636 128.001 503.146 92.3C592.512 -19.6162 273.579 113.557 298.786 -1.48515M298.786 -1.48515C237.482 75.7237 502.374 -39.0295 423.959 37.653C393.74 67.2032 311.838 101.768 252.444 114.983C133.622 141.423 -4.10129 -18.8214 1.36116 -100.874M298.786 -1.48515C239.888 78.2465 508.53 -37.667 429.24 41.297C399.167 71.2455 315.84 106.279 256.16 119.709C135.441 146.873 -4.87927 -17.1264 1.36116 -100.874M298.786 -1.48515C242.294 80.7673 514.659 -36.3186 434.517 44.9387C404.585 75.2879 319.842 110.79 259.875 124.433C137.264 152.327 -5.65934 -15.4312 1.36116 -100.874M298.786 -1.48515C247.106 85.8109 526.856 -33.6533 445.078 52.2245C415.411 83.3769 327.849 119.817 267.306 133.882C140.913 163.249 -7.21741 -12.0414 1.36116 -100.874M298.786 -1.48515C249.513 88.336 532.92 -32.3363 450.356 55.8685C420.818 87.4234 331.851 124.33 271.021 138.607C142.739 168.716 -7.99538 -10.3464 1.36116 -100.874M298.786 -1.48515C256.733 95.9027 550.999 -28.4403 466.191 66.7983C437.004 99.5754 343.865 137.877 282.167 152.782C148.226 185.138 -10.3314 -5.25916 1.36116 -100.874M298.786 -1.48515C263.954 103.467 568.897 -24.6208 482.03 77.7262C453.157 111.744 355.882 151.429 293.313 166.955C153.724 201.59 -12.6695 -0.176172 1.36116 -100.874M298.788 -1.48515C254.329 93.38 544.992 -29.7306 460.914 63.1546C431.616 95.5208 339.861 133.36 278.453 148.056C146.396 179.66 -9.55342 -6.95426 1.36116 -100.874M298.788 -1.48515C266.362 105.99 574.832 -23.3593 487.311 81.3702C458.533 115.805 359.89 155.949 297.029 171.681C155.559 207.084 -13.4475 1.52083 1.36116 -100.874M1.36116 -100.874C-11.8895 -1.87128 151.891 196.103 289.598 162.229C351.876 146.91 447.776 107.683 476.749 74.0821C562.948 -25.8885 261.546 100.944 298.785 -1.48745M7.76033 -95.1818C-8.92832 11.54 160.018 224.458 305.723 186.696C369.089 170.161 471.25 129.966 499.836 94.5979C588.756 -15.4213 274.729 114.789 300.679 2.69944M14.1575 -89.4896C-2.06891 16.4746 158.963 225.339 303.271 187.541C366.268 170.818 467.864 131.938 496.527 96.8979C584.988 -11.226 275.879 116.022 302.57 6.88861M20.5561 -83.7977C4.78781 21.4089 158.003 226.574 300.817 188.383C363.483 171.625 464.471 133.907 493.222 99.1958C581.205 -7.03682 277.025 117.252 304.461 11.0736M26.9534 -78.1056C11.6453 26.3432 156.979 227.567 298.365 189.228C360.677 172.331 461.078 135.879 489.913 101.496C577.419 -2.84995 278.175 118.485 306.354 15.2605M33.3525 -72.4136C18.5046 31.2775 155.957 228.558 295.913 190.07C357.868 173.033 457.681 137.851 486.604 103.791C573.616 1.32891 279.324 119.714 308.246 19.4435M39.7498 -66.7216C25.3621 36.2117 154.934 229.545 293.462 190.914C355.061 173.737 454.284 139.826 483.294 106.091C569.803 5.50738 280.471 120.946 310.136 23.6304M46.15 -61.0294C32.2224 41.146 153.913 230.529 291.011 191.757C352.256 174.437 450.887 141.8 479.989 108.389C565.978 9.68012 281.621 122.177 312.029 27.8173M52.5482 -55.3374C39.0788 46.0806 152.891 231.51 288.559 192.601C349.446 175.139 447.482 143.778 476.684 110.689C562.145 13.8483 282.772 123.409 313.923 32.0042M58.9461 -49.6454C45.9371 51.0126 151.866 232.489 286.108 193.444C346.64 175.837 444.077 145.754 473.375 112.987C558.297 18.0126 283.92 124.639 315.816 36.1892M65.3455 -43.9534C52.7966 55.9473 150.844 233.463 283.656 194.288C343.834 176.537 440.669 147.734 470.065 115.287C554.438 22.1708 285.069 125.872 317.706 40.376M71.743 -38.2615C59.6542 60.8815 149.821 234.435 281.202 195.13C341.025 177.232 437.256 149.712 466.756 117.585C550.559 26.3245 286.215 127.103 319.596 44.561M78.1423 -32.5695C66.5136 65.8158 148.797 235.404 278.753 195.975C338.221 177.93 433.844 151.692 463.451 119.885C546.681 30.4723 287.366 128.335 321.491 48.7479M84.5398 -26.8775C73.3696 70.7501 147.774 236.37 276.299 196.817C335.412 178.626 430.428 153.672 460.142 122.183C542.783 34.6137 288.516 129.566 323.384 52.9348M90.938 -21.1855C80.2279 75.6843 146.749 237.332 273.846 197.661C332.605 179.322 427.004 155.653 456.833 124.483C538.87 38.749 289.662 130.798 325.272 57.1217M97.3382 -15.4932C87.0882 80.6186 145.727 238.29 271.398 198.504C329.803 180.014 423.588 157.633 453.527 126.781C534.953 42.8763 290.815 132.029 327.168 61.3066M103.735 -9.80121C93.9446 85.5529 144.7 239.246 268.943 199.348C326.993 180.707 420.157 159.617 450.218 129.081C531.014 47.0012 291.961 133.261 329.057 65.4935M110.135 -4.10922C100.803 90.4875 143.677 240.198 266.493 200.191C324.188 181.397 416.733 161.6 446.909 131.378C527.063 51.1139 293.11 134.492 330.948 69.6785M116.533 1.58275C107.661 95.4218 142.65 241.147 264.042 201.035C321.382 182.088 413.301 163.584 443.603 133.678C523.104 55.2243 294.26 135.724 332.841 73.8654M122.933 7.27473C114.521 100.354 141.628 242.091 261.591 201.877C318.578 182.776 409.866 165.566 440.298 135.976C519.13 59.3225 295.412 136.955 334.737 78.0523M129.329 12.9667C121.378 105.288 140.599 243.032 259.136 202.721C315.769 183.463 406.423 167.55 436.985 138.274C515.14 63.4146 296.556 138.185 336.626 82.2372M135.727 18.6587C128.236 110.223 139.571 243.97 256.685 203.564C312.963 184.149 402.984 169.531 433.68 140.572C511.14 67.4983 297.706 139.416 338.517 86.4222M142.127 24.351C135.094 115.157 138.545 244.903 254.235 204.408C310.157 184.834 399.541 171.516 430.371 142.872C507.124 71.5739 298.855 140.648 340.41 90.6091M148.526 30.043C141.953 120.091 137.519 245.834 251.782 205.251C307.35 185.516 396.091 173.498 427.065 145.17C503.092 75.6412 300.003 141.879 342.302 94.7941M154.923 35.735C148.811 125.025 136.489 246.759 249.331 206.095C304.543 186.199 392.64 175.48 423.756 147.47C499.053 79.7 301.155 143.111 344.196 98.9833M161.323 41.427C155.671 129.96 135.459 247.682 246.879 206.937C301.737 186.878 389.182 177.462 420.451 149.768C494.995 83.7465 302.302 144.342 346.087 103.168M167.721 47.1208C162.528 134.896 134.428 248.603 244.426 207.784C298.929 187.56 385.72 179.444 417.142 152.069C490.922 87.7889 303.451 145.576 347.978 107.357M174.118 52.8132C169.384 139.831 133.396 249.517 241.975 208.626C296.122 188.234 382.254 181.423 413.832 154.367C486.837 91.8172 304.6 146.807 349.87 111.542M180.518 58.5052C176.244 144.765 132.366 250.428 239.523 209.471C293.314 188.912 378.788 183.401 410.523 156.667C482.74 95.8366 305.748 148.039 351.763 115.729M186.916 64.1972C183.102 149.699 131.334 251.334 237.07 210.313C290.507 189.585 375.314 185.377 407.218 158.965C478.629 99.8419 306.898 149.27 353.654 119.914M193.314 69.8891C189.961 154.632 130.299 252.234 234.62 211.158C287.699 190.258 371.838 187.353 403.913 161.265C474.506 103.841 308.047 150.505 355.547 124.103M199.713 75.5811C196.818 159.566 129.265 253.132 232.169 212C284.89 190.927 368.356 189.327 400.603 163.563C470.367 107.824 309.196 151.735 357.44 128.288M206.11 81.2731C203.675 164.5 128.226 254.026 229.716 212.844C282.081 191.596 364.87 191.298 397.294 165.863C466.21 111.8 310.344 152.967 359.329 132.475M212.51 86.9651C210.536 169.435 127.191 254.916 227.265 213.687C279.273 192.26 361.381 193.264 393.985 168.161C462.045 115.76 311.493 154.198 361.222 136.66M218.907 92.6574C217.392 174.369 126.15 255.802 224.81 214.531C276.459 192.925 357.882 195.232 390.676 170.461C457.864 119.709 312.641 155.43 363.113 140.846M225.307 98.349C224.253 179.303 125.111 256.681 222.363 215.373C273.652 193.588 354.388 197.191 387.374 172.756C453.676 123.644 313.794 156.659 365.01 145.031M231.705 104.041C231.109 184.238 124.069 257.559 219.909 216.218C270.84 194.249 350.88 199.15 384.065 175.056C449.469 127.569 314.94 157.891 366.898 149.218M238.104 109.733C237.967 189.172 123.027 258.43 217.457 217.06C268.026 194.905 347.371 201.103 380.754 177.354C445.25 131.477 316.088 159.122 368.79 153.403M244.502 115.425C244.826 194.106 121.982 259.297 215.007 217.905C265.215 195.562 343.858 203.052 377.448 179.654C441.02 135.375 317.239 160.354 370.684 157.59M250.901 121.117C251.685 199.041 120.935 260.16 212.555 218.747C262.4 196.216 340.337 204.995 374.14 181.952C436.775 139.257 318.386 161.585 372.576 161.775M257.299 126.809C258.544 203.973 119.888 261.019 210.102 219.591C259.586 196.869 336.811 206.934 370.833 184.252C432.522 143.126 319.537 162.818 374.467 165.962M263.695 132.501C265.398 208.907 118.834 261.874 207.649 220.433C256.768 197.515 333.279 208.864 367.523 186.55C428.254 146.978 320.683 164.048 376.358 170.149M270.097 138.194C272.26 213.842 117.786 262.722 205.2 221.278C253.953 198.163 329.744 210.788 364.217 188.85C423.974 150.818 321.834 165.281 378.252 174.336M276.495 143.885C279.118 218.776 116.73 263.567 202.747 222.12C251.133 198.805 326.202 212.704 360.908 191.147C419.687 154.64 322.983 166.511 380.143 178.521M282.893 149.578C285.976 223.71 115.672 264.407 200.296 222.965C248.315 199.447 322.655 214.614 357.601 193.448C415.384 158.449 324.131 167.744 382.034 182.708M289.293 155.27C292.834 228.644 114.614 265.243 197.844 223.807C245.494 200.085 319.102 216.511 354.295 195.745C411.077 162.24 325.282 168.974 383.928 186.893M295.689 160.962C299.691 233.579 113.55 266.073 195.391 224.651C242.67 200.721 315.54 218.4 350.985 198.045C406.756 166.015 326.429 170.207 385.819 191.079M302.088 166.654C306.55 238.513 112.485 266.899 192.94 225.494C239.846 201.353 311.977 220.277 347.678 200.343C402.43 169.773 327.578 171.437 387.711 195.266M308.485 172.345C313.406 243.448 111.415 267.721 190.486 226.338C237.019 201.985 308.402 222.141 344.367 202.643C398.089 173.516 328.725 172.67 389.598 199.454M314.885 178.037C320.267 248.382 110.348 268.538 188.035 227.181C234.193 202.61 304.825 223.991 341.06 204.941C393.748 177.241 329.875 173.9 391.494 203.638M321.285 183.73C327.125 253.314 109.275 269.35 185.586 228.025C231.364 203.234 301.245 225.828 337.757 207.239C389.403 180.947 331.028 175.131 393.389 207.823M327.681 189.424C333.981 258.25 108.196 270.159 183.131 228.87C228.529 203.855 297.651 227.649 334.446 209.539C385.043 184.636 332.173 176.363 395.277 212.01M334.081 195.116C340.842 263.185 107.118 270.962 180.681 229.714C225.695 204.472 294.057 229.452 331.138 211.839C380.682 188.307 333.322 177.596 397.172 216.199M340.477 200.808C347.698 268.119 106.031 271.761 178.228 230.556C222.859 205.086 290.453 231.233 327.83 214.137C376.319 191.959 334.47 178.826 399.063 220.384M346.878 206.5C354.559 273.053 104.945 272.554 175.777 231.401C220.02 205.697 286.847 232.995 324.522 216.437C371.953 195.593 335.621 180.059 400.955 224.571M353.274 212.192C361.413 277.987 103.85 273.345 173.323 232.243C217.173 206.302 283.228 234.731 321.211 218.735C367.583 199.206 336.765 181.289 402.843 228.756M359.674 217.884C368.273 282.923 102.754 274.129 170.873 233.087C214.329 206.904 279.613 236.442 317.907 221.034C363.221 202.802 337.919 182.522 404.738 232.943M366.073 223.576C375.132 287.855 101.657 274.91 168.422 233.93C211.481 207.501 275.987 238.125 314.599 223.332C358.856 206.376 339.068 183.752 406.633 237.128M372.47 229.268C381.99 292.79 100.549 275.686 165.968 234.774C208.628 208.096 272.357 239.779 311.29 225.632C354.494 209.933 340.214 184.985 408.521 241.317M378.87 234.96C388.849 297.725 99.4406 276.456 163.519 235.617C205.772 208.686 268.727 241.397 307.984 227.93C350.142 213.468 341.365 186.217 410.416 245.502M385.269 240.652C395.705 302.661 98.3256 277.224 161.066 236.461C202.911 209.272 265.09 242.981 304.675 230.23C345.795 216.984 342.512 187.45 412.308 249.689M391.666 246.344C402.564 307.592 97.206 277.987 158.614 237.303C200.046 209.855 261.451 244.523 301.368 232.528C341.462 220.479 343.662 188.681 414.199 253.874M398.066 252.036C409.427 312.528 96.0802 278.748 156.165 238.147C197.18 210.433 257.816 246.026 298.063 234.828C337.142 223.954 344.815 189.913 416.095 258.06M404.463 257.728C416.282 317.459 94.9492 279.501 153.711 238.99C194.303 211.005 254.178 247.48 294.753 237.126C332.835 227.408 345.96 191.144 417.982 262.247M410.863 263.42C423.141 322.395 93.8112 280.258 151.259 239.835C191.424 211.572 250.543 248.885 291.444 239.424C328.548 230.841 347.109 192.374 419.874 266.432M417.26 269.112C429.996 327.33 92.6656 281.008 148.807 240.677C188.538 212.136 246.914 250.238 288.136 241.722C324.284 234.254 348.258 193.604 421.765 270.617M423.661 274.804C436.859 332.262 91.5173 281.753 146.357 241.521C185.648 212.695 243.296 251.534 284.831 244.021C320.053 237.65 349.408 194.837 423.661 274.804Z" stroke="#E1E6ED" stroke-width="0.33483" stroke-miterlimit="10"/>
</svg>
